<svg xmlns="http://www.w3.org/2000/svg" width="16" height="16"><linearGradient id="a" x2="0" y2="16" gradientUnits="userSpaceOnUse"><stop offset=".188" stop-color="#ffffff" stop-opacity="0.339" /><stop stop-color="#ffffff" /><stop offset=".313" stop-color="#ffffff" /><stop stop-color="#ffffff" stop-opacity="0.999" /><stop offset=".438" stop-color="#ffffff" stop-opacity="0.999" /><stop stop-color="#ffffff" stop-opacity="0.984" /><stop offset=".563" stop-color="#ffffff" stop-opacity="0.984" /><stop stop-color="#ffffff" stop-opacity="0.745" /><stop offset=".688" stop-color="#ffffff" stop-opacity="0.745" /><stop stop-color="#ffffff" stop-opacity="0.210" /><stop offset=".813" stop-color="#ffffff" stop-opacity="0.210" /><stop stop-color="#ffffff" stop-opacity="0.362" /></linearGradient><path fill="url(#a)" d="M12 11a3 3 0 0 0 .414-5.969 4.5 5 0 0 0-8.824 0 3 3 0 0 0 .414 5.967zm-8 1a1 1 0 0 0 0 2 1 1 0 0 0 0-2zm8 0a1 1 0 0 0 0 2 1 1 0 0 0 0-2zm-4 1a1 1 0 0 0 0 2 1 1 0 0 0 0-2z" /></svg>